<svg id="圖層_1" data-name="圖層 1" xmlns="http://www.w3.org/2000/svg" viewBox="0 0 137 111"><defs><style>.cls-1{fill:#fff;}.cls-2{fill:#028090;}</style></defs><title>left</title><path class="cls-1" d="M98.6,30.51l0,0a1.39,1.39,0,0,1-1.58.14l-.1-.06a6.15,6.15,0,0,0-2.07-.76c-2.43-.42-3.89.78-5.74,2.09l-.24.17a1.66,1.66,0,0,1-2.48-2,6.79,6.79,0,0,1,.92-1.5,7.69,7.69,0,0,1,1.29-1.26,6,6,0,0,1,1.8-.93A8.77,8.77,0,0,1,92.25,26a8.43,8.43,0,0,1,3.59.48,7.09,7.09,0,0,1,3,2.06,1.39,1.39,0,0,1-.18,2Z"/><path class="cls-2" d="M121.48,16v90.36a4.49,4.49,0,0,1-4.48,4.48H79.52A4.51,4.51,0,0,1,75,106.36v-3.6a1.5,1.5,0,0,1,0-.3V76.3a6.37,6.37,0,0,0,.06-1.51A1.9,1.9,0,0,0,75,74.4,2.5,2.5,0,0,0,74.8,74a1.49,1.49,0,0,0-.17-.36l-.2-.34a2.82,2.82,0,0,0-.29-.39l-.21-.23-.29-.27a4,4,0,0,0-.71-.52l-.27-.15-.31-.14a3,3,0,0,0-.39-.14,2.75,2.75,0,0,0-.41-.11,5.12,5.12,0,0,0-.87-.08,4.33,4.33,0,0,0-1.24.18h-.1a22.89,22.89,0,0,1-7.42,1.3,7.26,7.26,0,0,1-7.25-7.25v-.18a.61.61,0,0,1,0-.19,5,5,0,0,1,0-.55,7.24,7.24,0,0,1,7.22-6.7,22.6,22.6,0,0,1,7.42,1.31h.1a4.33,4.33,0,0,0,1.24.18,4.49,4.49,0,0,0,4.45-4v-.12a.49.49,0,0,0,0-.17.67.67,0,0,0,0-.2V50.75c.46-.06.88,0,1.39-.06s1-.09,1.51-.17a14.83,14.83,0,0,0,3-.83,11.31,11.31,0,0,0,2.63-1.57A9.35,9.35,0,0,0,84.8,47a6.73,6.73,0,0,0,1-1.42,1.07,1.07,0,0,0-1.5-1.42l-.36.22c-.21.13-.58.4-.9.57a9.48,9.48,0,0,1-1,.52,13.52,13.52,0,0,1-2.23.73,20.49,20.49,0,0,1-4.75.49V16a4.52,4.52,0,0,1,4.52-4.46H117A4.47,4.47,0,0,1,121.48,16ZM98.61,30.5a1.39,1.39,0,0,0,.18-2,7.09,7.09,0,0,0-3-2.06A8.43,8.43,0,0,0,92.25,26a8.77,8.77,0,0,0-1.89.43,6,6,0,0,0-1.8.93,7.69,7.69,0,0,0-1.29,1.26,6.79,6.79,0,0,0-.92,1.5,1.66,1.66,0,0,0,2.48,2l.24-.17c1.85-1.31,3.31-2.51,5.74-2.09a6.15,6.15,0,0,1,2.07.76l.1.06a1.39,1.39,0,0,0,1.58-.14l0,0Z"/><path class="cls-1" d="M85.77,44.54a1.06,1.06,0,0,1,0,1.06,6.73,6.73,0,0,1-1,1.42,9.35,9.35,0,0,1-1.17,1.1A11.31,11.31,0,0,1,81,49.69a14.83,14.83,0,0,1-3,.83c-.5.08-1,.12-1.51.17s-.93,0-1.39.06l0-4a20.49,20.49,0,0,0,4.75-.49A13.52,13.52,0,0,0,82,45.49,9.48,9.48,0,0,0,83,45c.32-.17.69-.44.9-.57l.36-.22A1.06,1.06,0,0,1,85.77,44.54Z"/></svg>