<svg id="圖層_1" data-name="圖層 1" xmlns="http://www.w3.org/2000/svg" viewBox="0 0 137 111"><defs><style>.cls-1{fill:#fff;}.cls-2{fill:#ffc342;}</style></defs><title>left</title><path class="cls-1" d="M32.83,42.09A8.52,8.52,0,0,1,32,47.2a5.62,5.62,0,0,1-2.19,2.11,7.51,7.51,0,0,1-1.28.53,9.83,9.83,0,0,1-1.19.29,23.31,23.31,0,0,1-4.49.35c-2.76,0-5.57-.2-8.28-.42a1.66,1.66,0,1,1,0-3.32l.24,0c1.92.19,3.84.3,5.77.3.74,0,1.49,0,2.23-.05a11.11,11.11,0,0,0,3.57-.56A3.46,3.46,0,0,0,28.28,45c.71-1,.5-4.28.47-6.86s-.14-5.42-.07-8.25A1.86,1.86,0,1,1,32.4,30c0,.37,0,.74,0,1.12,0,2.24.14,4.57.24,6.88Z"/><path class="cls-1" d="M60.77,28.8a4.57,4.57,0,0,1-9,1.19,4.57,4.57,0,0,1,9-1.19Z"/><path class="cls-1" d="M65.92,44.35c.22.13.6.39.93.57a10.4,10.4,0,0,0,1.06.52,15,15,0,0,0,2.26.75,21.39,21.39,0,0,0,4.85.53h.09l-.11,4a16.41,16.41,0,0,1-6-1.11,12,12,0,0,1-2.73-1.53A9.38,9.38,0,0,1,65.11,47a6.78,6.78,0,0,1-1-1.37,1.08,1.08,0,0,1,1.49-1.47Z"/><path class="cls-2" d="M75,50.75h0v4.64a4.48,4.48,0,0,1-4.45,4,4.33,4.33,0,0,1-1.24-.18h-.1A22.6,22.6,0,0,0,61.8,57.9a7.24,7.24,0,0,0-7.22,6.7,5,5,0,0,0,0,.55.61.61,0,0,0,0,.19v.18a7.26,7.26,0,0,0,7.25,7.25,22.89,22.89,0,0,0,7.42-1.3h.1a4.33,4.33,0,0,1,1.24-.18,5.12,5.12,0,0,1,.87.08l.41.11a3,3,0,0,1,.39.14l.31.14.27.15a4,4,0,0,1,.71.52l.29.27.21.23a2.82,2.82,0,0,1,.29.39l.2.34c.06.12.12.24.17.36l.15.38a1.15,1.15,0,0,1,.11.39,2.32,2.32,0,0,1,.06.38v31.24a4.52,4.52,0,0,1-4,4.46H47.54a4.48,4.48,0,0,1-4.18-4.47,4.33,4.33,0,0,1,.18-1.24.17.17,0,0,1,0-.1,22.6,22.6,0,0,0,1.31-7.42,7.22,7.22,0,0,0-6.58-7.21,3.75,3.75,0,0,0-.67,0h-.18a4.57,4.57,0,0,0-.74,0,5.07,5.07,0,0,0-.68.11,7.25,7.25,0,0,0-5.78,7.08,22.89,22.89,0,0,0,1.3,7.42.17.17,0,0,1,0,.1,4.33,4.33,0,0,1,.18,1.24,4.49,4.49,0,0,1-4.14,4.47H4.48A4.49,4.49,0,0,1,0,106.37V16a4.49,4.49,0,0,1,4.48-4.43H71A4.52,4.52,0,0,1,75.11,16V46.72H75a21.39,21.39,0,0,1-4.85-.53,15,15,0,0,1-2.26-.75,10.4,10.4,0,0,1-1.06-.52c-.33-.18-.71-.44-.93-.57l-.32-.19a1.08,1.08,0,0,0-1.49,1.47,6.78,6.78,0,0,0,1,1.37,9.38,9.38,0,0,0,1.16,1.11A12,12,0,0,0,69,49.64,16.41,16.41,0,0,0,75,50.75ZM56.77,33.44a4.43,4.43,0,0,0,4-4.64,4.57,4.57,0,0,0-9,1.19A4.44,4.44,0,0,0,56.77,33.44ZM32,47.2a8.52,8.52,0,0,0,.83-5.11L32.63,38c-.1-2.31-.24-4.64-.24-6.88,0-.38,0-.75,0-1.12a1.86,1.86,0,1,0-3.72-.11c-.07,2.83,0,5.67.07,8.25S29,44,28.28,45a3.46,3.46,0,0,1-1.87,1.45,11.11,11.11,0,0,1-3.57.56c-.74,0-1.49.05-2.23.05-1.93,0-3.85-.11-5.77-.3l-.24,0a1.66,1.66,0,1,0,0,3.32c2.71.22,5.52.42,8.28.42a23.31,23.31,0,0,0,4.49-.35,9.83,9.83,0,0,0,1.19-.29,7.51,7.51,0,0,0,1.28-.53A5.62,5.62,0,0,0,32,47.2Z"/></svg>