<svg id="圖層_1" data-name="圖層 1" xmlns="http://www.w3.org/2000/svg" viewBox="0 0 263 111"><defs><style>.cls-1{fill:#028090;}</style></defs><title>rigth</title><path class="cls-1" d="M168.76,46.72h9.79a2.93,2.93,0,0,0,2.93-2.93V18.9A2.93,2.93,0,0,0,178.54,16H114.17a2.93,2.93,0,0,0-2.93,2.93v89a2.93,2.93,0,0,0,2.93,2.93H121a2.93,2.93,0,0,0,2.93-2.93V46.72Zm-44.8-18h44.8V34H124Z"/><path class="cls-1" d="M176.73,75.13h-15.1V53A2.93,2.93,0,0,0,158.7,50h-6.85A2.93,2.93,0,0,0,148.91,53V75.13h-15A2.93,2.93,0,0,0,131,78.06v6.85a2.93,2.93,0,0,0,2.93,2.93h15v20.09a2.93,2.93,0,0,0,2.93,2.93h6.85a2.93,2.93,0,0,0,2.93-2.93V87.84h15.1a2.93,2.93,0,0,0,2.93-2.93V78.06A2.93,2.93,0,0,0,176.73,75.13Z"/><rect class="cls-1" x="130.97" y="93.18" width="12.72" height="17.69" rx="2.93" ry="2.93"/><rect class="cls-1" x="130.97" y="50.04" width="12.72" height="19.75" rx="2.93" ry="2.93"/><rect class="cls-1" x="166.95" y="93.18" width="12.72" height="17.69" rx="2.93" ry="2.93"/><rect class="cls-1" x="166.95" y="50.04" width="12.72" height="19.75" rx="2.93" ry="2.93"/><path class="cls-1" d="M260.07,18H238.61A3.91,3.91,0,0,1,235,14.05a3.76,3.76,0,0,1,.16-1.07.26.26,0,0,1,0-.08,19.8,19.8,0,0,0,1.15-6.47A6.29,6.29,0,0,0,230.55.16a3.81,3.81,0,0,0-.58,0h-.16a4.71,4.71,0,0,0-.64,0,3.25,3.25,0,0,0-.59.09,6.29,6.29,0,0,0-5.07,6.18,20,20,0,0,0,1.13,6.47.26.26,0,0,1,0,.08,3.76,3.76,0,0,1,.16,1.07,3.91,3.91,0,0,1-3.61,3.89h0a1.28,1.28,0,0,1-.25,0H198.49a2.93,2.93,0,0,0-2.93,2.93V35.43a2.93,2.93,0,0,0,2.93,2.93h6.85a2.93,2.93,0,0,0,2.93-2.93V30.68h42v4.75a2.93,2.93,0,0,0,2.93,2.93h6.85A2.93,2.93,0,0,0,263,35.43V20.89A2.93,2.93,0,0,0,260.07,18Z"/><path class="cls-1" d="M257.75,43.06h-57A2.93,2.93,0,0,0,197.87,46v61.95a2.93,2.93,0,0,0,2.93,2.93h6.85a2.93,2.93,0,0,0,2.88-2.38h47.22a2.93,2.93,0,0,0,2.93-2.93V80.67a2.93,2.93,0,0,0-2.93-2.93H210.59v-4h47.17a2.93,2.93,0,0,0,2.93-2.93V46A2.93,2.93,0,0,0,257.75,43.06ZM248,90.45v5.32H210.59V90.45ZM248,61H210.59V55.78H248Z"/><path class="cls-1" d="M94.26,30.68a2.93,2.93,0,0,0,2.93-2.93V20.89A2.93,2.93,0,0,0,94.26,18H79.15a3.91,3.91,0,0,1-3.65-3.89A3.76,3.76,0,0,1,75.66,13a.26.26,0,0,1,0-.08,19.8,19.8,0,0,0,1.15-6.47A6.29,6.29,0,0,0,71.09.16a3.81,3.81,0,0,0-.58,0h-.16a4.71,4.71,0,0,0-.64,0,3.25,3.25,0,0,0-.59.09A6.29,6.29,0,0,0,64,6.44a20,20,0,0,0,1.13,6.47.26.26,0,0,1,0,.08,3.76,3.76,0,0,1,.16,1.07,3.91,3.91,0,0,1-3.61,3.89h0a1.28,1.28,0,0,1-.25,0H44.6a2.93,2.93,0,0,0-2.93,2.93v6.85a2.93,2.93,0,0,0,2.93,2.93H64.07V34H44.6a2.93,2.93,0,0,0-2.93,2.93v6.85a2.93,2.93,0,0,0,2.93,2.93H94.26a2.93,2.93,0,0,0,2.93-2.93V36.93A2.93,2.93,0,0,0,94.26,34H76.79V30.68Z"/><path class="cls-1" d="M35.42,18h.12a3.91,3.91,0,0,1-3.65-3.89A3.76,3.76,0,0,1,32.05,13a.26.26,0,0,1,0-.08,19.81,19.81,0,0,0,1.15-6.47A6.29,6.29,0,0,0,27.47.16a3.81,3.81,0,0,0-.58,0h-.16a4.71,4.71,0,0,0-.64,0,3.25,3.25,0,0,0-.59.09,6.29,6.29,0,0,0-5.07,6.18,20,20,0,0,0,1.13,6.47.26.26,0,0,1,0,.08,3.76,3.76,0,0,1,.16,1.07,3.91,3.91,0,0,1-3.61,3.89h0a1.28,1.28,0,0,1-.25,0H7.35a2.93,2.93,0,0,0-2.93,2.93v9.79h0V34h0V46.72h0v13.1a2.93,2.93,0,0,0,2.93,2.93H14.2a2.93,2.93,0,0,0,2.93-2.93V46.72h3.32V66.08H7.35A2.93,2.93,0,0,0,4.42,69v6.85a2.93,2.93,0,0,0,2.93,2.93h13.1V98.15H17.13V85a2.93,2.93,0,0,0-2.93-2.93H7.35A2.93,2.93,0,0,0,4.42,85v22.89a2.93,2.93,0,0,0,2.93,2.93H35.42a2.93,2.93,0,0,0,2.93-2.93v-6.85a2.93,2.93,0,0,0-2.93-2.93H33.17V78.79h2.24a2.93,2.93,0,0,0,2.93-2.93V69a2.93,2.93,0,0,0-2.93-2.93H33.17V46.72h2.24a2.93,2.93,0,0,0,2.93-2.93V36.93A2.93,2.93,0,0,0,35.42,34H17.13V30.68H35.42a2.93,2.93,0,0,0,2.93-2.93V20.89A2.93,2.93,0,0,0,35.42,18Z"/><path class="cls-1" d="M94.26,50H44.6A2.93,2.93,0,0,0,41.67,53v55a2.93,2.93,0,0,0,2.93,2.93h6.85a2.93,2.93,0,0,0,2.93-2.93V62.76h3.32v13.1a2.93,2.93,0,0,0,2.93,2.93H75.79v3.32H60.64A2.93,2.93,0,0,0,57.71,85V91.9a2.93,2.93,0,0,0,2.93,2.93H75.79v3.32H60.64a2.93,2.93,0,0,0-2.93,2.93v6.85a2.93,2.93,0,0,0,2.93,2.93H94.26a2.93,2.93,0,0,0,2.93-2.93v-6.85a2.93,2.93,0,0,0-2.93-2.93H88.5V94.83h5.76a2.93,2.93,0,0,0,2.93-2.93V85a2.93,2.93,0,0,0-2.93-2.93H88.5V78.79h5.76a2.93,2.93,0,0,0,2.93-2.93V69a2.93,2.93,0,0,0-2.93-2.93H88.5V62.76h5.76a2.93,2.93,0,0,0,2.93-2.93V53A2.93,2.93,0,0,0,94.26,50Zm-18.47,16H70.43V62.76h5.36Z"/></svg>